<svg version="1.1" id="Capa_1" xmlns="http://www.w3.org/2000/svg" xmlns:xlink="http://www.w3.org/1999/xlink" x="0px" y="0px" viewBox="0 0 30 30" style="enable-background:new 0 0 30 30;" xml:space="preserve">
<style type="text/css">
	.st0{fill:#0092FF;}
</style>
<g>
<g>
<path class="st0" d="M28.4,27l-9.7-9.7c3.4-4.2,2.8-10.3-1.4-13.7S7,0.8,3.6,4.9S0.8,15.3,4.9,18.7c3.6,2.9,8.8,2.9,12.4,0
			l9.7,9.7c0.4,0.4,1,0.4,1.4,0C28.7,28,28.7,27.4,28.4,27z M11.1,18.9c-4.3,0-7.8-3.5-7.8-7.8c0-4.3,3.5-7.8,7.8-7.8
			s7.8,3.5,7.8,7.8S15.4,18.9,11.1,18.9z"></path>
</g>
</g>
</svg>